<svg width="90" height="24" viewBox="0 0 90 24" fill="none" xmlns="http://www.w3.org/2000/svg">
<g transform="translate(0, 3) scale(0.78)">
<path d="M0.468157 10.0384C-0.327301 11.138 -0.0845926 12.677 1.01026 13.4759C2.10511 14.2749 3.63751 14.0311 4.43297 12.9315L10.9608 3.90774C11.7563 2.80814 11.5135 1.26909 10.4187 0.470187C9.32384 -0.32872 7.79144 -0.0849594 6.99598 1.01464L0.468157 10.0384Z" fill="#0a0a0a"/>
<path d="M9.58634 10.0384C8.79088 11.138 9.03359 12.677 10.1284 13.4759C11.2233 14.2749 12.7557 14.0311 13.5512 12.9315L20.079 3.90774C20.8744 2.80814 20.6317 1.26909 19.5369 0.470187C18.442 -0.32872 16.9096 -0.0849594 16.1142 1.01464L9.58634 10.0384Z" fill="#0a0a0a"/>
<path d="M20.2642 8.43508C20.3712 8.18912 20.7186 8.18912 20.8256 8.43508L21.498 9.98086C21.5289 10.0519 21.5853 10.1086 21.656 10.1396L23.1952 10.8149C23.44 10.9224 23.44 11.2713 23.1952 11.3787L21.656 12.0541C21.5853 12.0851 21.5289 12.1418 21.498 12.2128L20.8256 13.7586C20.7186 14.0046 20.3712 14.0046 20.2642 13.7586L19.5918 12.2128C19.5609 12.1418 19.5044 12.0851 19.4337 12.0541L17.8946 11.3787C17.6497 11.2713 17.6497 10.9224 17.8946 10.8149L19.4337 10.1396C19.5044 10.1086 19.5609 10.0519 19.5918 9.98086L20.2642 8.43508Z" fill="#0a0a0a" fill-opacity="0.6"/>
</g>
<text x="24" y="17" font-family="system-ui, -apple-system, sans-serif" font-weight="600" font-size="16" fill="#0a0a0a">Mira</text>
</svg>
